<?xml version="1.0" encoding="UTF-8"?>
<svg version="1.1" viewBox="0 0 2048 426" width="1483" height="309" xmlns="http://www.w3.org/2000/svg">
<path transform="translate(0)" d="m0 0h2048v426h-2048z" fill="#FCFCFC"/>
<path transform="translate(175,80)" d="m0 0h23l20 3 21 6 23 11 12 8 10 8 12 11 11 13 3 4v2l-5-2-16-8-14-4-12-2h-20l-20 4-13 5-13 7-13 10-8 8-10 14-8 16-4 13-2 11v26l4 18 7 16 7 12 13 15 13 10 19 10 13 4 18 3h12l20-3 17-6 13-7 2 1-10 13-17 17-15 11-18 10-18 7-21 5-17 2h-17l-21-3-19-5-19-8-16-9-13-10-13-12-11-13-10-15-8-16-7-19-4-18-1-9v-28l3-19 5-18 8-18 8-14 12-16 17-17 15-11 16-9 14-6 21-6z" fill="#D5D0CF"/>
<path transform="translate(943,81)" d="m0 0h18l1 1v217l-3 1-20-1-1-16-10 8-15 7-11 3-7 1h-8l-15-3-12-5-11-7-10-10-9-14-5-13-2-10v-17l3-14 5-12 7-10 9-10 10-7 11-5 16-4h13l15 3 16 8 8 6 2-96z" fill="#8ABAFF"/>
<path transform="translate(1569,161)" d="m0 0h13l14 3 12 5 10 7 12 12 8 14 4 11 2 11v16l-4 16-7 14-8 10-7 7-11 7-12 5-15 3h-8l-16-3-14-6-11-8-2 83h-13l-11-1v-203l1-1h22l1 16 11-8 12-6z" fill="#8ABAFF"/>
<path transform="translate(1802,161)" d="m0 0h12l15 3 16 8 9 7 7 7 7 11 5 11 3 12 1 16-3 16-7 16-10 13-9 8-12 7-16 5-7 1h-9l-15-3-12-5-10-6-4-3-1 83h-14l-10-1v-204h22l1 16 8-6 16-8 10-3z" fill="#8ABAFF"/>
<path transform="translate(1324,161)" d="m0 0h13l15 3 16 8 11 8v-17h23v136l-1 1h-11l-11-1-1-16-10 8-15 7-11 3-7 1h-8l-15-3-12-5-11-7-11-11-8-13-5-12-2-10v-18l3-14 5-12 7-10 9-10 14-9 13-5z" fill="#8ABAFF"/>
<path transform="translate(1920,14)" d="m0 0 2 1 15 55 4 10 8 11 10 9 15 7 56 15v2l-58 16-14 7-11 10-6 10-5 13-11 40-3 11-2 1-6-21-10-36-4-10-10-13-13-9-14-5-51-14v-2l58-16 12-6 11-9 9-14 7-23 10-38z" fill="#FFDA08"/>
<path transform="translate(1047,163)" d="m0 0h27l32 64 10 23 1 5h2l2-9 9-20 24-48 8-15h26l-2 6-99 198-1 1h-26l1-5 26-52 10-19 5-10-1-7-24-48-11-23-19-38z" fill="#8ABAFF"/>
<path transform="translate(607,163)" d="m0 0h24l1 79 3 14 7 12 8 6 7 3 5 1h11l10-3 8-5 5-5 5-8 2-6 1-8 1-80h24v137h-10l-12-1-1-19-12 12-10 6-13 4h-19l-13-4-11-7-10-10-7-12-4-14-1-15v-18z" fill="#8ABAFF"/>
<path transform="translate(1564,184)" d="m0 0h16l13 4 9 6 9 9 6 12 2 9v15l-4 13-7 11-9 8-12 6-8 2h-13l-13-4-10-6-9-10-5-10-3-11v-13l3-12 7-12 8-8 10-6z" fill="#FDFDFD"/>
<path transform="translate(1326,184)" d="m0 0h16l13 4 10 7 8 9 6 12 2 10v11l-3 12-6 11-10 10-10 6-11 3h-13l-11-3-11-6-9-9-7-13-2-9v-17l4-12 7-10 8-8 14-7z" fill="#FDFDFD"/>
<path transform="translate(1797,184)" d="m0 0h16l10 3 11 6 8 8 6 10 3 10 1 14-3 14-6 11-10 10-10 6-12 3h-13l-13-4-10-7-7-7-6-10-3-11v-18l4-12 6-9 9-9 14-7z" fill="#FDFDFD"/>
<path transform="translate(886,184)" d="m0 0h16l13 4 10 7 8 9 6 12 2 10v11l-3 12-6 11-11 11-12 6-9 2h-12l-13-4-10-6-7-7-6-10-4-12v-17l4-13 7-10 8-8 14-7z" fill="#FDFDFD"/>
<path transform="translate(304,160)" d="m0 0h9l15 3 10 4 9 7 2 2-2 11-4 15h-2l-7-9-10-7-9-3h-14l-6 3-5 6-1 9 3 7 5 4 19 8 18 8 10 8 6 10 2 7v17l-4 11-7 9-8 6-12 5-4 1h-20l-12-3-12-6-9-8 3-14 3-12h2l7 9 9 7 10 4 4 1h13l8-3 5-6 1-3v-11l-4-6-8-5-25-10-11-6-7-6-6-10-2-8v-11l4-13 7-10 8-6 9-4z" fill="#8ABAFF"/>
<path transform="translate(464,118)" d="m0 0h23v45h34v20l-1 1h-33v116l-24-1v-115h-30l-1-2v-18l1-1h31z" fill="#8ABAFF"/>
</svg>
